<svg width="40" height="40" viewBox="0 0 40 40" fill="none" xmlns="http://www.w3.org/2000/svg">
<path d="M33.9453 19.0547L19.1875 6.24609C19.0742 6.14844 18.9297 6.09375 18.7773 6.09375H15.3203C15.0313 6.09375 14.8984 6.45312 15.1172 6.64062L28.7969 18.5156H5.9375C5.76563 18.5156 5.625 18.6562 5.625 18.8281V21.1719C5.625 21.3438 5.76563 21.4844 5.9375 21.4844H28.793L15.1133 33.3594C14.8945 33.5508 15.0273 33.9062 15.3164 33.9062H18.8906C18.9648 33.9062 19.0391 33.8789 19.0938 33.8281L33.9453 20.9453C34.0805 20.8277 34.189 20.6825 34.2633 20.5194C34.3376 20.3563 34.376 20.1792 34.376 20C34.376 19.8208 34.3376 19.6437 34.2633 19.4806C34.189 19.3175 34.0805 19.1723 33.9453 19.0547Z" fill="black"/>
</svg>
