<svg width="40" height="40" viewBox="0 0 40 40" fill="none" xmlns="http://www.w3.org/2000/svg">
<path d="M31.5333 10.0167C31.2 9.03334 30.2667 8.33334 29.1667 8.33334H10.8333C9.73333 8.33334 8.81667 9.03334 8.46667 10.0167L5 20V33.3333C5 34.25 5.75 35 6.66667 35H8.33333C9.25 35 10 34.25 10 33.3333V31.6667H30V33.3333C30 34.25 30.75 35 31.6667 35H33.3333C34.25 35 35 34.25 35 33.3333V20L31.5333 10.0167ZM11.4167 11.6667H28.5667L30.3 16.6667H9.68333L11.4167 11.6667ZM31.6667 28.3333H8.33333V20H31.6667V28.3333Z" fill="black"/>
<path d="M12.5 26.6667C13.8807 26.6667 15 25.5474 15 24.1667C15 22.786 13.8807 21.6667 12.5 21.6667C11.1193 21.6667 10 22.786 10 24.1667C10 25.5474 11.1193 26.6667 12.5 26.6667Z" fill="black"/>
<path d="M27.5 26.6667C28.8807 26.6667 30 25.5474 30 24.1667C30 22.786 28.8807 21.6667 27.5 21.6667C26.1193 21.6667 25 22.786 25 24.1667C25 25.5474 26.1193 26.6667 27.5 26.6667Z" fill="black"/>
</svg>
