<svg width="136" height="29" viewBox="0 0 136 29" fill="none" xmlns="http://www.w3.org/2000/svg">
<path d="M10.4131 18.1104H5.97852V28H0.412109V0.984375H10.4502C13.6416 0.984375 16.1032 1.69564 17.835 3.11816C19.5667 4.54069 20.4326 6.55078 20.4326 9.14844C20.4326 10.9915 20.0306 12.5316 19.2266 13.7686C18.4349 14.9932 17.2288 15.9704 15.6084 16.7002L21.4531 27.7402V28H15.4785L10.4131 18.1104ZM5.97852 13.6016H10.4688C11.8665 13.6016 12.9489 13.249 13.7158 12.5439C14.4827 11.8265 14.8662 10.8431 14.8662 9.59375C14.8662 8.31966 14.5013 7.31771 13.7715 6.58789C13.054 5.85807 11.9469 5.49316 10.4502 5.49316H5.97852V13.6016ZM33.5693 28.3711C30.6253 28.3711 28.2256 27.4681 26.3701 25.6621C24.527 23.8561 23.6055 21.4502 23.6055 18.4443V17.9248C23.6055 15.9085 23.9951 14.1087 24.7744 12.5254C25.5537 10.9297 26.6546 9.70508 28.0771 8.85156C29.512 7.98568 31.1449 7.55273 32.9756 7.55273C35.7217 7.55273 37.8802 8.41862 39.4512 10.1504C41.0345 11.8822 41.8262 14.3376 41.8262 17.5166V19.7061H29.042C29.2152 21.0173 29.7347 22.0687 30.6006 22.8604C31.4788 23.652 32.5859 24.0479 33.9219 24.0479C35.9876 24.0479 37.6019 23.2995 38.7646 21.8027L41.3994 24.7529C40.5954 25.891 39.5068 26.7816 38.1338 27.4248C36.7607 28.0557 35.2393 28.3711 33.5693 28.3711ZM32.957 11.8945C31.8932 11.8945 31.0273 12.2533 30.3594 12.9707C29.7038 13.6882 29.2832 14.7148 29.0977 16.0508H36.5566V15.624C36.5319 14.4365 36.2103 13.5212 35.5918 12.8779C34.9733 12.2223 34.0951 11.8945 32.957 11.8945ZM49.8232 7.92383L49.9902 10.2432C51.4251 8.44954 53.3486 7.55273 55.7607 7.55273C57.8883 7.55273 59.4717 8.17741 60.5107 9.42676C61.5498 10.6761 62.0817 12.5439 62.1064 15.0303V28H56.7441V15.1602C56.7441 14.0221 56.4967 13.1995 56.002 12.6924C55.5072 12.1729 54.6846 11.9131 53.5342 11.9131C52.0251 11.9131 50.8932 12.5563 50.1387 13.8428V28H44.7764V7.92383H49.8232ZM72.6084 2.98828V7.92383H76.041V11.8574H72.6084V21.877C72.6084 22.6191 72.7507 23.151 73.0352 23.4727C73.3197 23.7943 73.8639 23.9551 74.668 23.9551C75.2617 23.9551 75.7874 23.9118 76.2451 23.8252V27.8887C75.1937 28.2103 74.1113 28.3711 72.998 28.3711C69.2376 28.3711 67.3203 26.4723 67.2461 22.6748V11.8574H64.3145V7.92383H67.2461V2.98828H72.6084ZM100.589 19.001C100.379 21.9079 99.3024 24.1963 97.3604 25.8662C95.4307 27.5361 92.8825 28.3711 89.7158 28.3711C86.2523 28.3711 83.5247 27.2083 81.5332 24.8828C79.554 22.5449 78.5645 19.3411 78.5645 15.2715V13.6201C78.5645 11.0225 79.0221 8.73405 79.9375 6.75488C80.8529 4.77572 82.1579 3.26042 83.8525 2.20898C85.5596 1.14518 87.5387 0.613281 89.79 0.613281C92.9072 0.613281 95.4183 1.44824 97.3232 3.11816C99.2282 4.78809 100.329 7.13216 100.626 10.1504H95.0596C94.9235 8.40625 94.4349 7.14453 93.5938 6.36523C92.765 5.57357 91.4971 5.17773 89.79 5.17773C87.9346 5.17773 86.543 5.8457 85.6152 7.18164C84.6999 8.50521 84.2298 10.5648 84.2051 13.3604V15.4014C84.2051 18.3206 84.6442 20.4544 85.5225 21.8027C86.4131 23.151 87.8109 23.8252 89.7158 23.8252C91.4352 23.8252 92.7155 23.4355 93.5566 22.6562C94.4102 21.8646 94.8988 20.6462 95.0225 19.001H100.589ZM115.525 28C115.278 27.5176 115.099 26.9176 114.987 26.2002C113.688 27.6475 112 28.3711 109.922 28.3711C107.955 28.3711 106.322 27.8021 105.023 26.6641C103.737 25.526 103.094 24.0911 103.094 22.3594C103.094 20.2318 103.879 18.599 105.45 17.4609C107.034 16.3229 109.316 15.7477 112.297 15.7354H114.765V14.585C114.765 13.6572 114.523 12.915 114.041 12.3584C113.571 11.8018 112.823 11.5234 111.796 11.5234C110.893 11.5234 110.182 11.7399 109.662 12.1729C109.155 12.6058 108.901 13.1995 108.901 13.9541H103.539C103.539 12.7913 103.898 11.7152 104.615 10.7256C105.333 9.736 106.347 8.96289 107.658 8.40625C108.969 7.83724 110.441 7.55273 112.074 7.55273C114.548 7.55273 116.509 8.17741 117.956 9.42676C119.416 10.6637 120.146 12.4079 120.146 14.6592V23.3613C120.158 25.2663 120.424 26.7074 120.943 27.6846V28H115.525ZM111.091 24.2705C111.882 24.2705 112.612 24.0973 113.28 23.751C113.948 23.3923 114.443 22.916 114.765 22.3223V18.8711H112.761C110.076 18.8711 108.648 19.7988 108.475 21.6543L108.456 21.9697C108.456 22.6377 108.691 23.1882 109.161 23.6211C109.631 24.054 110.274 24.2705 111.091 24.2705ZM135.546 12.9521C134.816 12.8532 134.173 12.8037 133.616 12.8037C131.588 12.8037 130.258 13.4902 129.627 14.8633V28H124.265V7.92383H129.33L129.479 10.3174C130.555 8.47428 132.045 7.55273 133.95 7.55273C134.544 7.55273 135.101 7.63314 135.62 7.79395L135.546 12.9521Z" fill="white"/>
</svg>
