<svg width="49" height="49" viewBox="0 0 49 49" fill="none" xmlns="http://www.w3.org/2000/svg">
<path d="M35.2422 8.09111C35.2422 7.79643 35.3593 7.51381 35.5677 7.30544C35.776 7.09707 36.0586 6.98 36.3533 6.98C36.648 6.98 36.9306 7.09707 37.139 7.30544C37.3474 7.51381 37.4644 7.79643 37.4644 8.09111V45.8689C37.4644 46.1636 37.3474 46.4462 37.139 46.6546C36.9306 46.8629 36.648 46.98 36.3533 46.98C36.0586 46.98 35.776 46.8629 35.5677 46.6546C35.3593 46.4462 35.2422 46.1636 35.2422 45.8689V8.09111Z" fill="black" stroke="black"/>
<path d="M13.02 8.09111C13.02 7.79643 13.1371 7.51381 13.3454 7.30544C13.5538 7.09707 13.8364 6.98 14.1311 6.98C14.4258 6.98 14.7084 7.09707 14.9168 7.30544C15.1252 7.51381 15.2422 7.79643 15.2422 8.09111V45.8689C15.2422 46.1636 15.1252 46.4462 14.9168 46.6546C14.7084 46.8629 14.4258 46.98 14.1311 46.98C13.8364 46.98 13.5538 46.8629 13.3454 46.6546C13.1371 46.4462 13.02 46.1636 13.02 45.8689V8.09111Z" fill="black" stroke="black"/>
<path d="M24.1311 12.5356C24.1311 12.2409 24.2482 11.9583 24.4565 11.7499C24.6649 11.5415 24.9475 11.4244 25.2422 11.4244C25.5369 11.4244 25.8195 11.5415 26.0279 11.7499C26.2363 11.9583 26.3533 12.2409 26.3533 12.5356V16.98C26.3533 17.2747 26.2363 17.5573 26.0279 17.7657C25.8195 17.9741 25.5369 18.0911 25.2422 18.0911C24.9475 18.0911 24.6649 17.9741 24.4565 17.7657C24.2482 17.5573 24.1311 17.2747 24.1311 16.98V12.5356Z" fill="black" stroke="black"/>
<path d="M24.1311 24.7578C24.1311 24.4631 24.2482 24.1805 24.4565 23.9721C24.6649 23.7637 24.9475 23.6467 25.2422 23.6467C25.5369 23.6467 25.8195 23.7637 26.0279 23.9721C26.2363 24.1805 26.3533 24.4631 26.3533 24.7578V29.2022C26.3533 29.4969 26.2363 29.7795 26.0279 29.9879C25.8195 30.1963 25.5369 30.3133 25.2422 30.3133C24.9475 30.3133 24.6649 30.1963 24.4565 29.9879C24.2482 29.7795 24.1311 29.4969 24.1311 29.2022V24.7578Z" fill="black" stroke="black"/>
<path d="M24.1311 36.98C24.1311 36.6853 24.2482 36.4027 24.4565 36.1943C24.6649 35.986 24.9475 35.8689 25.2422 35.8689C25.5369 35.8689 25.8195 35.986 26.0279 36.1943C26.2363 36.4027 26.3533 36.6853 26.3533 36.98V41.4244C26.3533 41.7191 26.2363 42.0017 26.0279 42.2101C25.8195 42.4185 25.5369 42.5356 25.2422 42.5356C24.9475 42.5356 24.6649 42.4185 24.4565 42.2101C24.2482 42.0017 24.1311 41.7191 24.1311 41.4244V36.98Z" fill="black" stroke="black"/>
</svg>
